<?xml version="1.0" encoding="UTF-8" standalone="no"?>
<!DOCTYPE svg PUBLIC "-//W3C//DTD SVG 1.1//EN" "http://www.w3.org/Graphics/SVG/1.1/DTD/svg11.dtd">
<svg width="100%" height="100%" viewBox="0 0 11 11" version="1.1" xmlns="http://www.w3.org/2000/svg" xmlns:xlink="http://www.w3.org/1999/xlink" xml:space="preserve" xmlns:serif="http://www.serif.com/" style="fill-rule:evenodd;clip-rule:evenodd;stroke-linejoin:round;stroke-miterlimit:2;">
    <g transform="matrix(1,0,0,1,-1612.98,-58.9747)">
        <g transform="matrix(4.70534,0,0,33.6334,-4177.93,-4228.07)">
            <g transform="matrix(0.00587256,0,0,0.000821576,1230.3,127.405)">
                <path d="M434.158,333.092C424.356,316.944 398.49,309.818 383.943,307.006C357.394,301.876 323.179,302.266 306.595,314.704C301.136,318.801 298.417,327.267 297.782,342.156C297.698,344.118 297.661,346.034 297.651,347.849C269.473,336.966 243.462,320.731 221.262,300.166L211.513,290.472C190.861,268.428 174.549,242.6 163.61,214.627C165.439,214.618 167.37,214.581 169.348,214.498C184.29,213.867 192.787,211.168 196.899,205.748C209.354,189.331 209.805,155.433 204.727,129.122C201.912,114.531 194.748,88.591 178.412,78.787C162.16,69.033 137.041,71.386 126.995,72.852C106.27,75.873 89.028,83.196 80.871,92.438C73.763,100.493 71.266,123.48 70.523,132.988C70.503,133.238 70.496,133.495 70.5,133.746C71.723,211.193 101.515,285.148 154.386,341.96C154.457,342.035 154.529,342.141 154.602,342.214L169.424,357.015C169.497,357.088 169.571,357.286 169.648,357.354C226.771,409.916 301.107,439 378.965,441L379.089,441C379.295,441 379.501,440.742 379.707,440.727C389.257,439.988 412.343,437.258 420.428,430.204C429.73,422.088 437.099,404.927 440.141,384.297C441.615,374.294 443.984,349.282 434.158,333.092ZM424.312,381.962C421.921,398.174 416.133,412.716 409.916,418.141C407.129,420.438 392.668,423.388 378.84,424.495C305.102,423.252 234.717,395.185 180.596,345.433L165.996,330.914C115.974,277.111 87.757,207.151 86.507,133.854C87.612,120.139 90.57,105.789 92.871,103.021C98.34,96.825 112.982,91.063 129.307,88.683C146.43,86.186 162.094,87.65 170.182,92.505C177.986,97.189 185.205,112.381 189.021,132.154C194.029,158.104 192.003,185.378 184.324,195.854C181.223,198.032 167.163,199.199 153.975,198.41C152.543,198.049 150.996,198.073 149.491,198.575C148.177,199.014 147.053,199.762 146.171,200.71C144.9,202.015 144.064,203.757 143.922,205.717C143.8,207.406 144.215,209.008 145.018,210.363C156.078,242.695 173.771,272.639 196.784,298.093C197.056,298.528 197.374,298.943 197.738,299.331C200.109,301.858 202.532,304.338 205.001,306.764C207.446,309.225 209.942,311.638 212.491,314C212.882,314.362 213.299,314.678 213.735,314.947C239.325,337.82 269.429,355.412 301.928,366.405C303.282,367.205 304.882,367.618 306.571,367.491C308.544,367.348 310.295,366.497 311.601,365.209C311.735,365.083 311.855,364.945 311.981,364.81C312.015,364.771 312.05,364.732 312.085,364.692C312.79,363.9 313.365,362.972 313.719,361.901C314.216,360.398 314.236,358.856 313.872,357.428C313.085,344.349 314.25,330.415 316.428,327.337C327.05,319.636 354.658,317.644 380.911,322.717C400.64,326.53 415.805,333.687 420.483,341.395C425.351,349.417 426.818,364.962 424.312,381.962Z" style="fill:white;fill-rule:nonzero;"/>
            </g>
        </g>
    </g>
</svg>
