<?xml version="1.0" encoding="UTF-8" standalone="no"?>
<!DOCTYPE svg PUBLIC "-//W3C//DTD SVG 1.1//EN" "http://www.w3.org/Graphics/SVG/1.1/DTD/svg11.dtd">
<svg width="100%" height="100%" viewBox="0 0 24 20" version="1.1" xmlns="http://www.w3.org/2000/svg" xmlns:xlink="http://www.w3.org/1999/xlink" xml:space="preserve" xmlns:serif="http://www.serif.com/" style="fill-rule:evenodd;clip-rule:evenodd;stroke-linecap:round;stroke-miterlimit:10;">
    <g transform="matrix(1,0,0,1,-189.053,-5727.34)">
        <g transform="matrix(1,0,0,1,108.614,5778.04)">
            <g transform="matrix(0.309527,0,0,0.309527,82.3105,-50.8779)">
                <path d="M13.55,37.56L41.69,23.8C41.707,23.793 41.724,23.79 41.742,23.79C41.819,23.79 41.882,23.853 41.882,23.93C41.882,23.968 41.867,24.004 41.84,24.03L19.66,42C19.175,42.389 18.892,42.978 18.89,43.6L18.89,52.41C18.89,52.411 18.89,52.411 18.89,52.412C18.89,52.637 19.075,52.822 19.3,52.822C19.37,52.822 19.439,52.804 19.5,52.77L27.25,48.47L34.1,53.27C34.24,53.368 34.407,53.421 34.578,53.421C34.876,53.421 35.153,53.26 35.3,53L60,11.06C60.024,11.015 60.036,10.965 60.036,10.915C60.036,10.745 59.896,10.605 59.726,10.605C59.693,10.605 59.661,10.61 59.63,10.62L4.54,31C4.218,31.122 4.004,31.432 4.004,31.776C4.004,32.043 4.133,32.294 4.35,32.45L11.46,37.45C12.084,37.864 12.886,37.906 13.55,37.56Z" style="fill:none;fill-rule:nonzero;stroke:rgb(1,35,73);stroke-width:2px;"/>
            </g>
        </g>
    </g>
</svg>
