<?xml version="1.0" encoding="UTF-8" standalone="no"?>
<!DOCTYPE svg PUBLIC "-//W3C//DTD SVG 1.1//EN" "http://www.w3.org/Graphics/SVG/1.1/DTD/svg11.dtd">
<svg width="100%" height="100%" viewBox="0 0 16 16" version="1.1" xmlns="http://www.w3.org/2000/svg" xmlns:xlink="http://www.w3.org/1999/xlink" xml:space="preserve" xmlns:serif="http://www.serif.com/" style="fill-rule:evenodd;clip-rule:evenodd;stroke-linejoin:round;stroke-miterlimit:2;">
    <g transform="matrix(1,0,0,1,-193.596,-5674.41)">
        <g transform="matrix(4.70534,0,0,40.7881,-4153.79,-6198.83)">
            <g transform="matrix(0.306821,0,0,0.035395,923.927,291.096)">
                <path d="M11,5.358C11,8.318 8.583,10.717 5.6,10.717C4.653,10.717 3.764,10.475 2.99,10.05L0,11L0.975,8.125C0.483,7.318 0.2,6.371 0.2,5.358C0.2,2.399 2.618,0 5.6,0C8.583,0 11,2.399 11,5.358ZM5.6,0.853C3.096,0.853 1.06,2.874 1.06,5.358C1.06,6.344 1.381,7.257 1.925,8L1.358,9.673L3.102,9.118C3.819,9.589 4.678,9.863 5.6,9.863C8.103,9.863 10.14,7.843 10.14,5.358C10.14,2.874 8.103,0.853 5.6,0.853ZM8.327,6.592C8.294,6.538 8.205,6.505 8.073,6.439C7.941,6.374 7.29,6.056 7.169,6.012C7.047,5.968 6.959,5.946 6.871,6.078C6.783,6.209 6.529,6.505 6.452,6.592C6.374,6.68 6.297,6.691 6.165,6.626C6.032,6.56 5.606,6.421 5.1,5.974C4.707,5.626 4.441,5.196 4.364,5.064C4.287,4.933 4.356,4.862 4.422,4.796C4.482,4.738 4.554,4.643 4.621,4.566C4.687,4.49 4.709,4.435 4.753,4.347C4.797,4.26 4.775,4.183 4.742,4.117C4.709,4.052 4.444,3.405 4.334,3.142C4.223,2.879 4.113,2.923 4.036,2.923C3.959,2.923 3.87,2.912 3.782,2.912C3.694,2.912 3.55,2.945 3.429,3.076C3.308,3.208 2.966,3.526 2.966,4.172C2.966,4.818 3.44,5.443 3.506,5.53C3.573,5.618 4.422,6.987 5.768,7.513C7.113,8.039 7.113,7.863 7.356,7.841C7.599,7.819 8.139,7.524 8.25,7.217C8.36,6.91 8.36,6.647 8.327,6.592Z" style="fill:rgb(1,35,73);fill-rule:nonzero;"/>
            </g>
        </g>
    </g>
</svg>
