<?xml version="1.0" encoding="UTF-8" standalone="no"?>
<!DOCTYPE svg PUBLIC "-//W3C//DTD SVG 1.1//EN" "http://www.w3.org/Graphics/SVG/1.1/DTD/svg11.dtd">
<svg width="100%" height="100%" viewBox="0 0 13 13" version="1.1" xmlns="http://www.w3.org/2000/svg" xmlns:xlink="http://www.w3.org/1999/xlink" xml:space="preserve" xmlns:serif="http://www.serif.com/" style="fill-rule:evenodd;clip-rule:evenodd;stroke-linejoin:round;stroke-miterlimit:2;">
    <g transform="matrix(1,0,0,1,-1222.65,-5617.2)">
        <g transform="matrix(4.70534,0,0,40.7881,-4163.6,-4730.4)">
            <g transform="matrix(0.225259,0,0,0.025986,1144.59,253.692)">
                <path d="M11.994,5.39C11.782,5.178 11.439,5.178 11.228,5.39L8.124,8.493L6.249,10.369L6.248,10.369C5.191,11.427 3.476,11.427 2.418,10.369C1.361,9.311 1.361,7.596 2.418,6.539C2.419,6.538 2.419,6.538 2.419,6.538L4.294,4.663L5.868,3.089L7.397,1.56C8.032,0.925 9.061,0.925 9.696,1.56C10.33,2.194 10.33,3.223 9.696,3.858L8.166,5.387L5.799,7.755L4.716,8.837C4.505,9.048 4.162,9.048 3.95,8.837C3.739,8.625 3.739,8.282 3.95,8.071L8.546,3.475C8.758,3.263 8.758,2.92 8.547,2.709C8.335,2.497 7.992,2.497 7.78,2.709L3.184,7.305C2.55,7.939 2.55,8.968 3.184,9.603C3.819,10.238 4.848,10.238 5.482,9.603L10.462,4.624L10.462,4.624C11.519,3.566 11.52,1.851 10.462,0.794C9.404,-0.264 7.689,-0.264 6.632,0.794C6.631,0.794 6.631,0.795 6.63,0.795L1.654,5.771C1.653,5.772 1.653,5.772 1.652,5.773C0.171,7.254 0.171,9.654 1.652,11.135C3.133,12.616 5.534,12.616 7.014,11.135L11.994,6.156C12.205,5.944 12.205,5.601 11.994,5.39Z" style="fill-rule:nonzero;"/>
            </g>
        </g>
    </g>
</svg>
