<?xml version="1.0" encoding="UTF-8" standalone="no"?>
<!DOCTYPE svg PUBLIC "-//W3C//DTD SVG 1.1//EN" "http://www.w3.org/Graphics/SVG/1.1/DTD/svg11.dtd">
<svg width="100%" height="100%" viewBox="0 0 1542 297" version="1.1" xmlns="http://www.w3.org/2000/svg" xmlns:xlink="http://www.w3.org/1999/xlink" xml:space="preserve" xmlns:serif="http://www.serif.com/" style="fill-rule:evenodd;clip-rule:evenodd;stroke-linecap:round;stroke-linejoin:round;stroke-miterlimit:1.5;">
    <g transform="matrix(1,0,0,1,-2572.31,-1386.79)">
        <g transform="matrix(4.70534,0,0,33.6334,-1794.86,-4228.07)">
            <g transform="matrix(1,0,0,0.473331,-0.0230139,60.7945)">
                <g>
                    <g transform="matrix(1.80386,0,0,1.80386,-713.458,-229.633)">
                        <g transform="matrix(0.212525,0,0,0.0628152,-932.522,125.272)">
                            <circle cx="8965.45" cy="2092.76" r="27.718" style="fill:rgb(184,180,180);fill-opacity:0;stroke:rgb(212,209,209);stroke-width:2.22px;"/>
                        </g>
                        <g transform="matrix(0.0104506,0,0,0.00308885,970.182,255.938)">
                            <path d="M434.158,333.092C424.356,316.944 398.49,309.818 383.943,307.006C357.394,301.876 323.179,302.266 306.595,314.704C301.136,318.801 298.417,327.267 297.782,342.156C297.698,344.118 297.661,346.034 297.651,347.849C269.473,336.966 243.462,320.731 221.262,300.166L211.513,290.472C190.861,268.428 174.549,242.6 163.61,214.627C165.439,214.618 167.37,214.581 169.348,214.498C184.29,213.867 192.787,211.168 196.899,205.748C209.354,189.331 209.805,155.433 204.727,129.122C201.912,114.531 194.748,88.591 178.412,78.787C162.16,69.033 137.041,71.386 126.995,72.852C106.27,75.873 89.028,83.196 80.871,92.438C73.763,100.493 71.266,123.48 70.523,132.988C70.503,133.238 70.496,133.495 70.5,133.746C71.723,211.193 101.515,285.148 154.386,341.96C154.457,342.035 154.529,342.141 154.602,342.214L169.424,357.015C169.497,357.088 169.571,357.286 169.648,357.354C226.771,409.916 301.107,439 378.965,441L379.089,441C379.295,441 379.501,440.742 379.707,440.727C389.257,439.988 412.343,437.258 420.428,430.204C429.73,422.088 437.099,404.927 440.141,384.297C441.615,374.294 443.984,349.282 434.158,333.092ZM424.312,381.962C421.921,398.174 416.133,412.716 409.916,418.141C407.129,420.438 392.668,423.388 378.84,424.495C305.102,423.252 234.717,395.185 180.596,345.433L165.996,330.914C115.974,277.111 87.757,207.151 86.507,133.854C87.612,120.139 90.57,105.789 92.871,103.021C98.34,96.825 112.982,91.063 129.307,88.683C146.43,86.186 162.094,87.65 170.182,92.505C177.986,97.189 185.205,112.381 189.021,132.154C194.029,158.104 192.003,185.378 184.324,195.854C181.223,198.032 167.163,199.199 153.975,198.41C152.543,198.049 150.996,198.073 149.491,198.575C148.177,199.014 147.053,199.762 146.171,200.71C144.9,202.015 144.064,203.757 143.922,205.717C143.8,207.406 144.215,209.008 145.018,210.363C156.078,242.695 173.771,272.639 196.784,298.093C197.056,298.528 197.374,298.943 197.738,299.331C200.109,301.858 202.532,304.338 205.001,306.764C207.446,309.225 209.942,311.638 212.491,314C212.882,314.362 213.299,314.678 213.735,314.947C239.325,337.82 269.429,355.412 301.928,366.405C303.282,367.205 304.882,367.618 306.571,367.491C308.544,367.348 310.295,366.497 311.601,365.209C311.735,365.083 311.855,364.945 311.981,364.81C312.015,364.771 312.05,364.732 312.085,364.692C312.79,363.9 313.365,362.972 313.719,361.901C314.216,360.398 314.236,358.856 313.872,357.428C313.085,344.349 314.25,330.415 316.428,327.337C327.05,319.636 354.658,317.644 380.911,322.717C400.64,326.53 415.805,333.687 420.483,341.395C425.351,349.417 426.818,364.962 424.312,381.962Z" style="fill:rgb(184,180,180);fill-rule:nonzero;"/>
                        </g>
                    </g>
                    <g transform="matrix(1,0,0,1,34.7089,-6.92186)">
                        <g transform="matrix(0.383365,0,0,0.11331,-2329.28,3.32422)">
                            <circle cx="8965.45" cy="2092.76" r="27.718" style="fill:rgb(184,180,180);fill-opacity:0;stroke:rgb(212,209,209);stroke-width:2.22px;"/>
                        </g>
                        <g transform="matrix(0.161898,0,0,0.0478517,1102.59,238.926)">
                            <path d="M11.7,38.2C9.9,38.2 8.5,39.6 8.5,41.4C8.5,43.2 9.9,44.6 11.7,44.6C13.5,44.6 14.9,43.2 14.9,41.4C14.9,39.6 13.5,38.2 11.7,38.2ZM11.7,42.4C11.1,42.4 10.7,42 10.7,41.4C10.7,40.8 11.1,40.4 11.7,40.4C12.3,40.4 12.7,40.8 12.7,41.4C12.7,41.9 12.3,42.4 11.7,42.4Z" style="fill:rgb(184,180,180);fill-rule:nonzero;"/>
                            <path d="M48.3,38.2C46.5,38.2 45.1,39.6 45.1,41.4C45.1,43.2 46.5,44.6 48.3,44.6C50.1,44.6 51.5,43.2 51.5,41.4C51.5,39.6 50.1,38.2 48.3,38.2ZM48.3,42.4C47.7,42.4 47.3,42 47.3,41.4C47.3,40.8 47.7,40.4 48.3,40.4C48.9,40.4 49.3,40.8 49.3,41.4C49.3,41.9 48.9,42.4 48.3,42.4Z" style="fill:rgb(184,180,180);fill-rule:nonzero;"/>
                            <path d="M61.3,24.9L60.7,24.9C60,20.7 55.4,15.3 48.7,15.3L26,15.3C20,15.3 14.8,24.4 13.5,26.9L7.7,26.9C3.4,26.9 0,30.4 0,34.6L0,40.2C0,41.4 1,42.4 2.2,42.4L4.5,42.4C5,45.9 8.1,48.6 11.7,48.6C15.3,48.6 18.4,45.9 18.9,42.4L41.1,42.4C41.6,45.9 44.7,48.6 48.3,48.6C51.9,48.6 55,45.9 55.5,42.4L58.6,42.4C59.8,42.4 60.8,41.4 60.8,40.2L60.8,35L61.3,35C62.8,35 64,33.8 64,32.3L64,27.6C64,26.1 62.8,24.9 61.3,24.9ZM11.7,46.4C8.9,46.4 6.6,44.1 6.6,41.3C6.6,38.5 8.9,36.2 11.7,36.2C14.5,36.2 16.8,38.5 16.8,41.3C16.8,44.2 14.5,46.4 11.7,46.4ZM48.3,46.4C45.5,46.4 43.2,44.1 43.2,41.3C43.2,38.5 45.5,36.2 48.3,36.2C51.1,36.2 53.4,38.5 53.4,41.3C53.4,44.2 51.1,46.4 48.3,46.4ZM58.6,40.3L55.5,40.3C55,36.8 51.9,34.1 48.3,34.1C44.7,34.1 41.6,36.8 41.1,40.3L18.9,40.3C18.4,36.8 15.3,34.1 11.7,34.1C8.1,34.1 5,36.8 4.5,40.3L2.2,40.3L2.2,34.7C2.2,31.7 4.7,29.2 7.7,29.2L14.1,29.2C14.5,29.2 14.9,29 15.1,28.6C16.6,25.5 21.5,17.6 26,17.6L48.6,17.6C54.8,17.6 58.5,23.1 58.5,26.1L58.5,40.3L58.6,40.3ZM61.8,32.3C61.8,32.6 61.6,32.8 61.3,32.8L60.8,32.8L60.8,27.1L61.3,27.1C61.6,27.1 61.8,27.3 61.8,27.6L61.8,32.3Z" style="fill:rgb(184,180,180);fill-rule:nonzero;"/>
                            <path d="M35.9,19.9L28.5,19.9C25.6,19.9 22.8,21.3 21.3,23.7L18.8,27.5C18.6,27.8 18.6,28.3 18.8,28.6C19,29 19.4,29.2 19.8,29.2L35.9,29.2C36.5,29.2 37,28.7 37,28.1L37,21C37,20.4 36.5,19.9 35.9,19.9ZM34.8,27L21.8,27L23.2,24.9C24.3,23.2 26.3,22.1 28.5,22.1L34.8,22.1L34.8,27Z" style="fill:rgb(184,180,180);fill-rule:nonzero;"/>
                            <path d="M46.8,19.9L40.5,19.9C39.9,19.9 39.4,20.4 39.4,21L39.4,28.1C39.4,28.7 39.9,29.2 40.5,29.2L54.4,29.2C55,29.2 55.5,28.7 55.5,28.1C55.6,23.6 51.7,19.9 46.8,19.9ZM41.7,27L41.7,22.1L46.9,22.1C50.1,22.1 52.8,24.2 53.3,27L41.7,27Z" style="fill:rgb(184,180,180);fill-rule:nonzero;"/>
                        </g>
                    </g>
                    <g transform="matrix(1.80386,0,0,1.80386,-813.66,-184.707)">
                        <g transform="matrix(0.212525,0,0,0.0628152,-933.649,100.333)">
                            <circle cx="8965.45" cy="2092.76" r="27.718" style="fill:rgb(184,180,180);fill-opacity:0;stroke:rgb(212,209,209);stroke-width:2.22px;"/>
                        </g>
                        <g transform="matrix(0.11926,0,0,0.0352494,968.855,230.734)">
                            <g>
                                <path d="M43,46L5,46C3.3,46 2,44.7 2,43L2,21C2,19.3 3.3,18 5,18L13.7,18C14.1,18 14.4,17.8 14.6,17.5L15.5,15.6C15.9,14.6 17,13.9 18.2,13.9L29.7,13.9C30.9,13.9 32,14.6 32.4,15.6L33.3,17.3C33.5,17.6 33.8,17.8 34.2,17.8L43,17.8C44.7,17.8 46,19.1 46,20.8L46,42.8C46,44.7 44.7,46 43,46ZM5,20C4.4,20 4,20.4 4,21L4,43C4,43.6 4.4,44 5,44L43,44C43.6,44 44,43.6 44,43L44,21C44,20.4 43.6,20 43,20L34.2,20C33.1,20 32.1,19.4 31.5,18.4L30.6,16.6C30.4,16.2 30.1,16.1 29.7,16.1L18.2,16.1C17.8,16.1 17.5,16.3 17.3,16.6L16.4,18.5C16,19.5 14.9,20.2 13.7,20.2L5,20.2L5,20Z" style="fill:rgb(184,180,180);fill-rule:nonzero;"/>
                            </g>
                            <g>
                                <path d="M24,42C18.5,42 14,37.5 14,32C14,26.5 18.5,22 24,22C29.5,22 34,26.5 34,32C34,37.5 29.5,42 24,42ZM24,24C19.6,24 16,27.6 16,32C16,36.4 19.6,40 24,40C28.4,40 32,36.4 32,32C32,27.6 28.4,24 24,24Z" style="fill:rgb(184,180,180);fill-rule:nonzero;"/>
                            </g>
                        </g>
                    </g>
                    <g transform="matrix(1.80386,0,0,1.80386,-508.15,-192.505)">
                        <g transform="matrix(0.212525,0,0,0.0628152,-933.649,104.656)">
                            <circle cx="8965.45" cy="2092.76" r="27.718" style="fill:rgb(184,180,180);fill-opacity:0;stroke:rgb(212,209,209);stroke-width:2.22px;"/>
                        </g>
                        <g transform="matrix(0.113225,0,0,0.0334654,969.012,235.293)">
                            <path d="M47,40C47,42.762 44.762,45 42,45L6,45C3.238,45 1,42.762 1,40L1,11C1,8.791 2.791,7 5,7L25.171,7L33.27,4.066C33.783,3.879 34.351,4.144 34.538,4.655L35.391,7L39,7C41.209,7 43,8.791 43,11L43,13C45.209,13 47,14.791 47,17L47,40ZM5,9C3.896,9 3,9.896 3,11C3,12.104 3.896,13 5,13L8.634,13C8.647,12.995 8.655,12.984 8.668,12.979L19.65,9L5,9ZM34.078,9.181L33.016,6.257L33.015,6.257L30.964,7L30.967,7L25.453,9L25.443,9L14.404,13L35.466,13L34.078,9.181ZM41,11C41,9.896 40.104,9 39,9L36.117,9L37.571,13L41,13L41,11ZM43,15L5,15C4.268,15 3.59,14.789 3,14.445L3,40C3,41.657 4.344,43 6,43L42,43C43.657,43 45,41.657 45,40L45,33L41,33C38.791,33 37,31.209 37,29C37,26.791 38.791,25 41,25L45,25L45,17C45,15.896 44.104,15 43,15ZM45,31L45,27L41,27C39.896,27 39,27.896 39,29C39,30.104 39.896,31 41,31L45,31ZM41,28L43,28L43,30L41,30L41,28Z" style="fill:rgb(184,180,180);"/>
                        </g>
                    </g>
                    <g transform="matrix(1.98868e-18,0.0289829,-0.287353,1.13023e-17,1219,186.233)">
                        <rect x="1632.02" y="654.887" width="4.241" height="281.83" style="fill:rgb(184,180,180);fill-opacity:0.61;stroke:rgb(212,209,209);stroke-width:3.96px;"/>
                    </g>
                    <g transform="matrix(-0.0980586,-3.84133e-18,-1.19882e-17,-0.0208912,1099.52,243.891)">
                        <rect x="1632.02" y="654.887" width="4.241" height="281.83" style="fill:rgb(184,180,180);fill-opacity:0.61;stroke:rgb(212,209,209);stroke-width:4.97px;"/>
                    </g>
                    <g transform="matrix(-0.0980586,-3.84133e-18,-1.19882e-17,-0.0208912,1302.8,243.954)">
                        <rect x="1632.02" y="654.887" width="4.241" height="281.83" style="fill:rgb(184,180,180);fill-opacity:0.61;stroke:rgb(212,209,209);stroke-width:4.97px;"/>
                    </g>
                    <g transform="matrix(-0.0980586,-3.84133e-18,-1.19882e-17,-0.0208912,1201.99,256.354)">
                        <rect x="1632.02" y="654.887" width="4.241" height="281.83" style="fill:rgb(184,180,180);fill-opacity:0.61;stroke:rgb(212,209,209);stroke-width:4.97px;"/>
                    </g>
                    <g transform="matrix(-0.0980586,-3.84133e-18,-1.19882e-17,-0.0208912,1405.2,256.228)">
                        <rect x="1632.02" y="654.887" width="4.241" height="281.83" style="fill:rgb(184,180,180);fill-opacity:0.61;stroke:rgb(212,209,209);stroke-width:4.97px;"/>
                    </g>
                    <g transform="matrix(2.04845e-18,0.0289829,-0.283075,1.12249e-17,1317.23,186.171)">
                        <rect x="1632.02" y="654.887" width="4.241" height="281.83" style="fill:rgb(184,180,180);fill-opacity:0.61;stroke:rgb(212,209,209);stroke-width:4.01px;"/>
                    </g>
                    <g transform="matrix(1.99051e-18,0.0289829,-0.287222,1.12999e-17,1422.15,186.11)">
                        <rect x="1632.02" y="654.887" width="4.241" height="281.83" style="fill:rgb(184,180,180);fill-opacity:0.61;stroke:rgb(212,209,209);stroke-width:3.96px;"/>
                    </g>
                    <g transform="matrix(0.212525,0,0,0.0628152,-968.941,131.915)">
                        <text x="8987.86px" y="1518.47px" style="font-family:'Montserrat-Regular', 'Montserrat';font-size:20px;fill:rgb(1,35,73);">Отправьте нам фото старинного</text>
                        <text x="8987.86px" y="1548.47px" style="font-family:'Montserrat-Regular', 'Montserrat';font-size:20px;fill:rgb(1,35,73);">предмета на онлайн-оценку</text>   
                    </g>
                    <g transform="matrix(0.212525,0,0,0.0628152,-968.941,129.836)">
                        <text x="8987.86px" y="1518.47px" style="font-family:'Montserrat-SemiBold', 'Montserrat';font-weight:600;font-size:20px;fill:rgb(1,35,73);">Онлайн оценка</text>
                    </g>
                    <g transform="matrix(0.212525,0,0,0.0628152,-866.76,143.573)">
                        <text x="8987.86px" y="1518.47px" style="font-family:'Montserrat-SemiBold', 'Montserrat';font-weight:600;font-size:20px;fill:rgb(1,35,73);">Обратная связь</text>
                    </g>
                    <g transform="matrix(0.212525,0,0,0.0628152,-764.967,129.895)">
                        <text x="8987.86px" y="1518.47px" style="font-family:'Montserrat-SemiBold', 'Montserrat';font-weight:600;font-size:20px;fill:rgb(1,35,73);">Выезд оценщика</text>
                    </g>
                    <g transform="matrix(0.212525,0,0,0.0628152,-737.954,143.384)">
                        <text x="8987.86px" y="1518.47px" style="font-family:'Montserrat-SemiBold', 'Montserrat';font-weight:600;font-size:20px;fill:rgb(1,35,73);">Вы получите деньги</text>
                    </g>
                    <g transform="matrix(0.212525,0,0,0.0628152,-866.76,145.376)">
                        <text x="8987.86px" y="1518.47px" style="font-family:'Montserrat-Regular', 'Montserrat';font-size:20px;fill:rgb(1,35,73);">Мы свяжемся с Вами и назовем</text>
                        <text x="8987.86px" y="1548.47px" style="font-family:'Montserrat-Regular', 'Montserrat';font-size:20px;fill:rgb(1,35,73);">стоимость предмета</text>
                    </g>
                    <g transform="matrix(0.212525,0,0,0.0628152,-765.36,132.04)">
                        <text x="8987.86px" y="1518.47px" style="font-family:'Montserrat-Regular', 'Montserrat';font-size:20px;fill:rgb(1,35,73);">Выезд оценщика на дом в </text>
                        <text x="8987.86px" y="1548.47px" style="font-family:'Montserrat-Regular', 'Montserrat';font-size:20px;fill:rgb(1,35,73);">удобное для Вас время</text>
                    </g>
                    <g transform="matrix(0.212525,0,0,0.0628152,-743.967,145.119)">
                        <text x="8987.86px" y="1518.47px" style="font-family:'Montserrat-Regular', 'Montserrat';font-size:20px;fill:rgb(1,35,73);">Оценщик приедет к Вам и</text>
                        <text x="8987.86px" y="1548.47px" style="font-family:'Montserrat-Regular', 'Montserrat';font-size:20px;fill:rgb(1,35,73);">заплатит наличные сразу</text>
                    </g>
                    <g id="Layer_25">
                    </g>
                </g>
            </g>
        </g>
    </g>
</svg>
